# xmcd CD database file
#
# Track frame offsets:
#	150
#	25632
#	53577
#	73161
#	93872
#	117142
#	140935
#	169180
#	191490
#	216692
#	242006
#	259095
#	299259
#	359175
#
# Disc length: 4795 seconds
#
# Revision: 2
# Processed by: cddbd v1.5.1PL0 Copyright (c) Steve Scherf et al.
# Submitted via: CDex 1.51
#
DISCID=e012b90e
DTITLE=Various Artist - SOUL TREE -a musical tribute to toshinobu kubota-
DYEAR=2004
DGENRE=JPop
TTITLE0=LA･LA･LA LOVE SONG - BoA w/z SOUL'd OUT
TTITLE1=Dance if you want it - ゴスペラーズ meets ナニワエキスプレス
TTITLE2=Missing - 中島美嘉
TTITLE3=流星のサドル - SOULHEAD
TTITLE4=Cymbals - ATSUSHI from EXILE
TTITLE5=Candy Rain - Sowelu
TTITLE6=Cry On Your Smile - Skoop On Somebody
TTITLE7=Indigo Waltz (Live Version) - MISIA
TTITLE8=You were mine - 椎名純平 with ダンス☆マン
TTITLE9=永遠の翼 - 高宮マキ
TTITLE10=夢 with You - 倖田來未
TTITLE11=TAWAWA ヒットパレード - BOO, Keyco and RHYMESTER feat BUTTER DOG MARKET
TTITLE12=CCCD
TTITLE13=CCCD
EXTD=YEAR: 2004
EXTT0=
EXTT1=
EXTT2=
EXTT3=
EXTT4=
EXTT5=
EXTT6=
EXTT7=
EXTT8=
EXTT9=
EXTT10=
EXTT11=
EXTT12=
EXTT13=
PLAYORDER=
